<svg width="44" height="50" viewBox="0 0 44 50" fill="none" xmlns="http://www.w3.org/2000/svg">
<path d="M1.22332 28.9253C1.22343 28.305 1.71915 27.802 2.33051 27.8019C2.94193 27.8019 3.43759 28.305 3.4377 28.9253V31.1509L6.10331 31.6921L6.18116 31.7111C6.56779 31.8196 6.86924 32.1332 6.96325 32.5332C7.34642 34.1638 7.98734 35.7208 8.86191 37.1431C9.09268 37.5184 9.08525 37.9964 8.84244 38.3638L7.32294 40.661L10.429 43.8125L12.7003 42.2759L12.7695 42.2328C13.1217 42.0306 13.5578 42.0389 13.9041 42.2598C15.2168 43.0974 16.6484 43.7241 18.1483 44.119L18.4496 44.195L18.5274 44.217C18.9102 44.3397 19.1999 44.6647 19.2793 45.0683L19.8069 47.7532H24.1802L24.7056 45.069L24.7244 44.9893C24.8312 44.5963 25.1409 44.2902 25.536 44.195C27.146 43.8074 28.6826 43.1536 30.0837 42.2598L30.1544 42.2181C30.5128 42.0253 30.9492 42.0462 31.2897 42.2781L33.5516 43.8184L36.6555 40.6691L35.1367 38.3725C34.8938 38.0053 34.8859 37.5272 35.1165 37.1519C35.9904 35.7296 36.6312 34.1726 37.0137 32.542L37.0353 32.4637C37.1562 32.0755 37.4761 31.7816 37.8737 31.7009L40.5386 31.1597V28.9253C40.5387 28.3051 41.0345 27.8021 41.6457 27.8019C42.2572 27.8019 42.7528 28.305 42.7529 28.9253V32.0812C42.7528 32.6165 42.3807 33.0776 41.8634 33.1827L38.9866 33.7656C38.6044 35.1419 38.0602 36.4663 37.3648 37.7099L39.0018 40.1849C39.2964 40.6306 39.2395 41.2257 38.8655 41.6052L34.4735 46.0615C34.0994 46.4411 33.5122 46.499 33.073 46.1998L30.6387 44.5403C29.4113 45.2522 28.1029 45.8094 26.742 46.1983L26.1747 49.0953C26.0717 49.6209 25.6173 49.9998 25.0891 50H18.8987C18.3706 50 17.9156 49.6214 17.8124 49.096L17.2429 46.1976C15.8818 45.8083 14.573 45.2512 13.3454 44.5388L10.9026 46.1932C10.4635 46.4902 9.87883 46.4313 9.5056 46.0527L5.11362 41.5965C4.73956 41.2169 4.68194 40.6218 4.97666 40.1761L6.61293 37.7011C5.91713 36.4578 5.37229 35.1336 4.98963 33.7575L2.11354 33.1739C1.59603 33.0689 1.22334 32.6079 1.22332 32.0724V28.9253ZM30.2884 27.8107C30.8998 27.8205 31.3879 28.3314 31.3783 28.9516C31.3392 31.4494 30.3333 33.8315 28.5786 35.5838C26.824 37.336 24.4609 38.3183 21.9989 38.3184C19.5369 38.3184 17.1732 37.336 15.4185 35.5838C13.6639 33.8315 12.6587 31.4494 12.6196 28.9516C12.61 28.3314 13.0974 27.8206 13.7087 27.8107C14.32 27.8008 14.8233 28.2956 14.8332 28.9158C14.8631 30.824 15.6314 32.6442 16.9719 33.9828C18.3124 35.3214 20.1181 36.0716 21.9989 36.0716C23.8796 36.0715 25.6849 35.3213 27.0253 33.9828C28.3657 32.6442 29.1341 30.824 29.1639 28.9158C29.1738 28.2957 29.6772 27.8009 30.2884 27.8107ZM9.1351 10.3585C9.1351 9.42736 8.77056 8.53393 8.12162 7.87549C7.47277 7.21718 6.59271 6.84727 5.67514 6.84717C4.75744 6.84717 3.87687 7.21709 3.22794 7.87549C2.579 8.53393 2.21446 9.42736 2.21446 10.3585C2.21452 11.2896 2.5791 12.1824 3.22794 12.8408C3.87688 13.4993 4.75741 13.8691 5.67514 13.8691C6.59274 13.869 7.47276 13.4992 8.12162 12.8408C8.77046 12.1824 9.13504 11.2896 9.1351 10.3585ZM27.8715 8.20461C27.8715 7.42252 27.7196 6.64774 27.4246 5.9249C27.1295 5.20211 26.6967 4.54511 26.1516 3.99187C25.6063 3.43865 24.9587 2.99965 24.2465 2.70025V2.69952C23.5341 2.40027 22.7705 2.2468 21.9997 2.2468C21.2286 2.24682 20.4652 2.40092 19.7528 2.70025C19.0406 2.99966 18.393 3.43865 17.8477 3.99187C17.3026 4.54505 16.8705 5.20215 16.5755 5.9249H16.5747C16.2798 6.64759 16.1278 7.42241 16.1278 8.20461C16.1278 8.98686 16.2797 9.7616 16.5747 10.4843H16.5755C16.8705 11.2071 17.3025 11.8642 17.8477 12.4174C18.3929 12.9705 19.0406 13.4088 19.7528 13.7082C20.4652 14.0076 21.2285 14.1617 21.9997 14.1617C22.7706 14.1617 23.534 14.0076 24.2465 13.7082C24.9587 13.4089 25.6063 12.9705 26.1516 12.4174C26.6968 11.8641 27.1295 11.2072 27.4246 10.4843C27.7197 9.76145 27.8715 8.98675 27.8715 8.20461ZM41.7849 10.3585C41.7849 9.42735 41.4202 8.53396 40.7714 7.87549V7.87476C40.1225 7.21674 39.2424 6.84721 38.3249 6.84717C37.4073 6.84717 36.5267 7.21702 35.8777 7.87549C35.2288 8.53392 34.8642 9.42738 34.8642 10.3585C34.8643 11.2895 35.2289 12.1825 35.8777 12.8408C36.5267 13.4993 37.4073 13.8691 38.3249 13.8691C39.2427 13.8691 40.1224 13.4992 40.7714 12.8408C41.4202 12.1824 41.7848 11.2896 41.7849 10.3585ZM43.9992 10.3585C43.9992 11.8854 43.4016 13.3497 42.3377 14.4294C41.8819 14.8918 41.3557 15.2663 40.7858 15.5447C41.7712 15.8315 42.7033 16.2886 43.5394 16.8985C44.0356 17.2608 44.1486 17.9629 43.7916 18.4666C43.4346 18.9702 42.7426 19.0847 42.2462 18.7226C41.4283 18.1259 40.4887 17.7237 39.497 17.5451C38.5053 17.3664 37.4867 17.416 36.5164 17.6906C35.5463 17.9652 34.6495 18.4576 33.8918 19.1314C33.3312 19.6301 32.8576 20.2187 32.4891 20.8721C33.3542 21.5334 34.1594 22.2762 34.8923 23.0933C35.3039 23.5521 35.2709 24.2627 34.8188 24.6804C34.3666 25.098 33.6662 25.0646 33.2546 24.6058C31.8284 23.0159 30.0906 21.7457 28.1526 20.8765C26.2147 20.0073 24.119 19.5578 22.0004 19.5578C19.8814 19.5578 17.7854 20.0073 15.8474 20.8765C13.9095 21.7457 12.1716 23.0159 10.7454 24.6058C10.3338 25.0646 9.63345 25.098 9.18123 24.6804C8.72915 24.2628 8.69616 23.5521 9.10771 23.0933C9.84052 22.2764 10.6453 21.5333 11.5102 20.8721C11.1418 20.2188 10.6687 19.63 10.1082 19.1314C9.35081 18.4577 8.45317 17.9652 7.48297 17.6906C6.51286 17.416 5.49399 17.3664 4.50236 17.5451C3.51081 17.7237 2.57148 18.126 1.75385 18.7226C1.25744 19.0848 0.565424 18.9702 0.208402 18.4666C-0.148571 17.9629 -0.0356646 17.2608 0.460691 16.8985C1.29655 16.2886 2.2283 15.8315 3.21352 15.5447C2.6437 15.2664 2.11801 14.8917 1.66231 14.4294C0.598191 13.3496 0.000142924 11.8855 8.36456e-05 10.3585C8.36456e-05 8.83147 0.598092 7.36673 1.66231 6.28693C2.72651 5.20718 4.17015 4.60037 5.67514 4.60037C7.18 4.60047 8.62313 5.20727 9.68725 6.28693C10.7515 7.36673 11.3495 8.83147 11.3495 10.3585C11.3494 11.8855 10.7514 13.3496 9.68725 14.4294C9.23193 14.8914 8.70674 15.2657 8.13748 15.544C9.4046 15.9122 10.5764 16.56 11.5679 17.4419C12.2784 18.074 12.8833 18.8149 13.3627 19.6353C13.8775 19.3374 14.4079 19.0654 14.9522 18.8213C17.1722 17.8256 19.5731 17.311 22.0004 17.311C24.4273 17.3111 26.828 17.8256 29.0479 18.8213C29.592 19.0653 30.122 19.3375 30.6366 19.6353C31.116 18.8148 31.7216 18.0741 32.4322 17.4419L32.6232 17.2766C33.5726 16.479 34.6749 15.8889 35.8611 15.544C35.2922 15.2657 34.7672 14.8911 34.3121 14.4294C33.248 13.3497 32.6499 11.8854 32.6498 10.3585C32.6498 8.8315 33.2479 7.36673 34.3121 6.28693C35.3763 5.20717 36.8199 4.60037 38.3249 4.60037C39.736 4.60041 41.0928 5.13378 42.1337 6.09019L42.3377 6.28693L42.5316 6.49392C43.474 7.5501 43.9992 8.92692 43.9992 10.3585ZM30.0859 8.20461C30.0859 9.28211 29.8766 10.3492 29.4703 11.3444C29.064 12.3397 28.4685 13.2442 27.718 14.0059H27.7172C26.9664 14.7676 26.075 15.3723 25.0942 15.7846C24.1131 16.1969 23.0615 16.4085 21.9997 16.4085C20.9377 16.4085 19.8862 16.1969 18.9052 15.7846C17.9243 15.3723 17.0329 14.7677 16.2821 14.0059C15.5313 13.2441 14.9354 12.3398 14.529 11.3444C14.1227 10.3491 13.9135 9.28198 13.9134 8.20461C13.9134 7.12723 14.1227 6.06015 14.529 5.0648C14.9354 4.06945 15.5313 3.16513 16.2821 2.40331C17.0329 1.64152 17.9243 1.0369 18.9052 0.624598C19.8862 0.21234 20.9377 2.79421e-05 21.9997 0C23.0615 0 24.1131 0.21232 25.0942 0.624598C26.075 1.0369 26.9663 1.64152 27.7172 2.40331H27.718C28.4685 3.16507 29.064 4.06951 29.4703 5.0648C29.8766 6.06004 30.0859 7.12708 30.0859 8.20461Z" fill="black"/>
</svg>
