<svg width="18" height="14" viewBox="0 0 18 14" fill="none" xmlns="http://www.w3.org/2000/svg">
<path fill-rule="evenodd" clip-rule="evenodd" d="M0 1.82609C0 1.34178 0.203188 0.877306 0.564865 0.534849C0.926543 0.192391 1.41708 0 1.92857 0H16.0714C16.5829 0 17.0735 0.192391 17.4351 0.534849C17.7968 0.877306 18 1.34178 18 1.82609V2.24243L9.49243 7.61356C9.34392 7.69819 9.1733 7.74163 9 7.73896C8.8267 7.74163 8.65608 7.69819 8.50757 7.61356L0 2.24243V1.82609ZM0 4.07096V12.1739C0 12.6582 0.203188 13.1227 0.564865 13.4652C0.926543 13.8076 1.41708 14 1.92857 14H16.0714C16.5829 14 17.0735 13.8076 17.4351 13.4652C17.7968 13.1227 18 12.6582 18 12.1739V4.07096L10.3796 8.88209L10.3731 8.88696C9.96291 9.13398 9.48615 9.26374 9 9.2607C8.51786 9.2607 8.03186 9.13652 7.62686 8.88696L7.62043 8.88209L0 4.07096Z" fill="#7FFF00"/>
</svg>
