<svg width="19" height="18" viewBox="0 0 19 18" fill="none" xmlns="http://www.w3.org/2000/svg">
<path d="M9.5 0C7.2045 0 5.34375 1.98316 5.34375 4.42969C5.34375 6.40758 8.06016 10.0125 9.10087 11.321C9.31165 11.5861 9.68868 11.5861 9.89913 11.321C10.9398 10.0125 13.6562 6.40758 13.6562 4.42969C13.6562 1.98316 11.7955 0 9.5 0ZM9.5 5.90625C8.73472 5.90625 8.11458 5.24531 8.11458 4.42969C8.11458 3.61406 8.73472 2.95312 9.5 2.95312C10.2653 2.95312 10.8854 3.61406 10.8854 4.42969C10.8854 5.24531 10.2653 5.90625 9.5 5.90625ZM0.663681 7.59199C0.467802 7.67549 0.299887 7.81962 0.181592 8.00579C0.0632966 8.19197 4.69131e-05 8.41164 0 8.63648V17.4368C0 17.8348 0.377031 18.1069 0.723715 17.9592L5.27778 15.75V7.55578C4.98618 6.99398 4.74769 6.44695 4.57682 5.92383L0.663681 7.59199ZM9.5 12.6446C9.03588 12.6446 8.59684 12.4274 8.29568 12.0484C7.64717 11.2328 6.95743 10.3039 6.33333 9.35121V15.7496L12.6667 17.9996V9.35156C12.0426 10.3039 11.3532 11.2331 10.7043 12.0487C10.4032 12.4274 9.96411 12.6446 9.5 12.6446ZM18.2763 5.66578L13.7222 7.875V18L18.3363 16.033C18.5322 15.9495 18.7002 15.8054 18.8185 15.6192C18.9368 15.4331 19 15.2134 19 14.9885V6.1882C19 5.79023 18.623 5.51813 18.2763 5.66578Z" fill="#7FFF00"/>
</svg>
