<svg width="17" height="18" viewBox="0 0 17 18" fill="none" xmlns="http://www.w3.org/2000/svg">
<path d="M16.5152 12.7194L12.7964 11.0319C12.6375 10.9602 12.4609 10.9451 12.2933 10.9889C12.1256 11.0326 11.9759 11.1329 11.8667 11.2745L10.2198 13.405C7.63511 12.1147 5.55505 9.91225 4.3364 7.17555L6.34855 5.43177C6.48258 5.31634 6.57745 5.15782 6.61879 4.9802C6.66013 4.80258 6.64569 4.61553 6.57765 4.44738L4.98388 0.509807C4.9092 0.328542 4.77714 0.180544 4.61045 0.0913347C4.44376 0.00212529 4.2529 -0.0227045 4.07077 0.0211269L0.617589 0.864892C0.441997 0.907825 0.285334 1.01251 0.173169 1.16186C0.0610036 1.3112 -4.04491e-05 1.4964 2.01088e-08 1.68721C2.01088e-08 10.7049 6.90305 18 15.4065 18C15.5868 18.0001 15.7618 17.9355 15.9029 17.8168C16.044 17.698 16.1429 17.5321 16.1835 17.3461L16.9804 13.6898C17.0215 13.496 16.9976 13.2931 16.9127 13.116C16.8277 12.9389 16.6872 12.7987 16.5152 12.7194Z" fill="#7FFF00"/>
</svg>
