<svg width="67" height="48" viewBox="0 0 67 48" fill="none" xmlns="http://www.w3.org/2000/svg">
<mask id="path-1-outside-1_32016_99" maskUnits="userSpaceOnUse" x="-0.5" y="-0.5" width="68" height="49" fill="black">
<rect fill="white" x="-0.5" y="-0.5" width="68" height="49"/>
<path fill-rule="evenodd" clip-rule="evenodd" d="M3.86126 27.668C3.86699 27.6417 3.87272 27.6183 3.87845 27.592L9.97702 1.23656C10.0515 0.818596 10.4096 0.5 10.8421 0.5H56.159C56.5916 0.5 56.9496 0.818589 57.0241 1.23656L63.1227 27.592C63.1284 27.6154 63.1341 27.6417 63.1399 27.668L66.4656 42.0456C66.4885 42.1245 66.5 42.2063 66.5 42.2911V46.6023C66.5 47.0962 66.1076 47.4996 65.6206 47.4996C65.4888 47.4996 65.3657 47.4703 65.2568 47.4177L57.5914 44.1325L49.9004 47.4294C49.6741 47.5259 49.4306 47.52 49.2215 47.4294L41.5304 44.1325L33.8394 47.4294C33.6131 47.5259 33.3696 47.52 33.1605 47.4294L25.4695 44.1325L17.7784 47.4294C17.5521 47.5259 17.3086 47.52 17.0995 47.4294L9.40847 44.1325L1.71742 47.4294C1.27055 47.6223 0.754938 47.406 0.568749 46.9501C0.522916 46.8361 0.5 46.7192 0.5 46.6022V42.2911C0.5 42.2034 0.511458 42.1186 0.537238 42.0368L3.86126 27.668ZM33.8643 43.1036C33.7583 43.1533 33.6408 43.1825 33.5148 43.1854H33.4976H33.4947H33.4833H33.4804H33.4718H33.4604H33.4575H33.4403H33.4346C33.3257 43.1767 33.2226 43.1504 33.131 43.1065L25.4656 39.8213L17.7745 43.1182C17.5654 43.2088 17.3219 43.2147 17.0956 43.1182L9.40458 39.8213L2.25186 42.8874V45.252L9.06374 42.3321C9.27285 42.2415 9.51633 42.2356 9.74263 42.3321L17.4337 45.629L25.1247 42.3321C25.3338 42.2415 25.5773 42.2356 25.8036 42.3321L33.4947 45.629L41.1857 42.3321C41.3948 42.2415 41.6383 42.2356 41.8646 42.3321L49.5557 45.629L57.2467 42.3321C57.4558 42.2415 57.6993 42.2356 57.9256 42.3321L64.7375 45.252V42.8874L57.5847 39.8213L49.8937 43.1182C49.6846 43.2088 49.4411 43.2147 49.2148 43.1182L41.5238 39.8213L33.8584 43.1065L33.8643 43.1036ZM13.6496 10.926L14.8355 4.46948C14.9243 3.98428 15.3826 3.66571 15.8581 3.75631C16.3337 3.84691 16.6459 4.31457 16.5571 4.79974L15.3941 11.1189L19.7224 13.5916L20.9684 2.29162H11.5328L9.13523 12.6503L13.6468 10.9259L13.6496 10.926ZM11.1488 24.5434L12.6613 16.3216C12.7501 15.8364 13.2084 15.5179 13.6839 15.6084C14.1594 15.6991 14.4717 16.1667 14.3829 16.6519L12.9019 24.7127L18.2128 27.3112L19.5132 15.5203L14.3428 12.5682L8.65381 14.7428L5.94684 26.4401L11.1459 24.5462L11.1488 24.5434ZM8.63663 38.2078L10.1434 30.0123C10.2322 29.5271 10.6905 29.2085 11.166 29.2991C11.6415 29.3897 11.9537 29.8574 11.8649 30.3426L10.4012 38.3046L16.7002 41.0024L18.0035 29.1914L11.8649 26.1867L5.46548 28.5162L2.62673 40.7837L8.63364 38.2087L8.63663 38.2078ZM51.6047 11.1251L50.4417 4.80005C50.3529 4.31486 50.6652 3.84724 51.1407 3.75662C51.6162 3.66602 52.0745 3.98461 52.1633 4.46979L53.3492 10.9234L57.8608 12.6508L55.4632 2.2921H46.0276L47.2737 13.5944L51.6019 11.1245L51.6047 11.1251ZM54.1025 24.7102L52.6216 16.6494C52.5328 16.1642 52.845 15.6965 53.3205 15.6059C53.7961 15.5153 54.2544 15.8339 54.3432 16.3191L55.8556 24.5438L61.0547 26.4378L58.3477 14.7404L52.6645 12.5659L47.4883 15.5179L48.7888 27.3118L54.0996 24.7075L54.1025 24.7102ZM56.6004 38.3014L55.1366 30.3393C55.0478 29.8541 55.36 29.3865 55.8355 29.2958C56.3111 29.2052 56.7693 29.5238 56.8582 30.009L58.3649 38.2045L64.3718 40.7796L61.5331 28.5121L55.1308 26.1826L48.995 29.1901L50.2983 40.9982L56.5974 38.3004L56.6004 38.3014ZM26.219 10.9088L26.5885 4.58089C26.6171 4.08693 27.0325 3.71278 27.5137 3.74203C27.9978 3.77126 28.3645 4.19507 28.3359 4.6861L27.9721 10.9497L32.6212 13.5218V2.29216H22.736L21.5043 13.4455L26.219 10.9088ZM25.4198 24.6287L25.8982 16.4331C25.9268 15.9391 26.3422 15.565 26.8234 15.5943C27.3075 15.6235 27.6742 16.0473 27.6455 16.5383L27.1729 24.6605L32.6212 27.2531V15.5617L27.0555 12.4839L21.2692 15.5968L19.9916 27.1856L25.4227 24.634L25.4198 24.6287ZM24.6292 38.2378L25.1019 30.1238C25.1305 29.6298 25.5459 29.2557 26.0271 29.2849C26.5112 29.3141 26.8779 29.738 26.8492 30.229L26.3794 38.2666L32.6184 40.941V29.2295L26.2591 26.2043L19.7566 29.2616L18.4762 40.8744L24.6263 38.238L24.6292 38.2378ZM39.0954 11.0585L38.7373 4.68377C38.7116 4.18981 39.0811 3.76889 39.5652 3.74263C40.0493 3.71632 40.4618 4.09337 40.4875 4.58733L40.8485 11.0264L45.5005 13.4669L44.2659 2.2926H34.3807V13.5545L39.0954 11.0585ZM39.8574 24.6616L39.4019 16.5364C39.3762 16.0424 39.7457 15.6215 40.2298 15.5952C40.7139 15.5689 41.1264 15.946 41.1521 16.4399L41.6133 24.6325L47.013 27.1782L45.7354 15.6006L40.0035 12.593L34.3804 15.5714V27.2568L39.8574 24.6616ZM40.6222 38.2677L40.1696 30.227C40.1439 29.7331 40.5134 29.3122 40.9975 29.2859C41.4816 29.2596 41.8941 29.6366 41.9199 30.1306L42.3753 38.2416L48.5226 40.875L47.2393 29.257L40.7655 26.2056L34.3776 29.2307V40.9423L40.6194 38.2679L40.6222 38.2677Z"/>
</mask>
<path fill-rule="evenodd" clip-rule="evenodd" d="M3.86126 27.668C3.86699 27.6417 3.87272 27.6183 3.87845 27.592L9.97702 1.23656C10.0515 0.818596 10.4096 0.5 10.8421 0.5H56.159C56.5916 0.5 56.9496 0.818589 57.0241 1.23656L63.1227 27.592C63.1284 27.6154 63.1341 27.6417 63.1399 27.668L66.4656 42.0456C66.4885 42.1245 66.5 42.2063 66.5 42.2911V46.6023C66.5 47.0962 66.1076 47.4996 65.6206 47.4996C65.4888 47.4996 65.3657 47.4703 65.2568 47.4177L57.5914 44.1325L49.9004 47.4294C49.6741 47.5259 49.4306 47.52 49.2215 47.4294L41.5304 44.1325L33.8394 47.4294C33.6131 47.5259 33.3696 47.52 33.1605 47.4294L25.4695 44.1325L17.7784 47.4294C17.5521 47.5259 17.3086 47.52 17.0995 47.4294L9.40847 44.1325L1.71742 47.4294C1.27055 47.6223 0.754938 47.406 0.568749 46.9501C0.522916 46.8361 0.5 46.7192 0.5 46.6022V42.2911C0.5 42.2034 0.511458 42.1186 0.537238 42.0368L3.86126 27.668ZM33.8643 43.1036C33.7583 43.1533 33.6408 43.1825 33.5148 43.1854H33.4976H33.4947H33.4833H33.4804H33.4718H33.4604H33.4575H33.4403H33.4346C33.3257 43.1767 33.2226 43.1504 33.131 43.1065L25.4656 39.8213L17.7745 43.1182C17.5654 43.2088 17.3219 43.2147 17.0956 43.1182L9.40458 39.8213L2.25186 42.8874V45.252L9.06374 42.3321C9.27285 42.2415 9.51633 42.2356 9.74263 42.3321L17.4337 45.629L25.1247 42.3321C25.3338 42.2415 25.5773 42.2356 25.8036 42.3321L33.4947 45.629L41.1857 42.3321C41.3948 42.2415 41.6383 42.2356 41.8646 42.3321L49.5557 45.629L57.2467 42.3321C57.4558 42.2415 57.6993 42.2356 57.9256 42.3321L64.7375 45.252V42.8874L57.5847 39.8213L49.8937 43.1182C49.6846 43.2088 49.4411 43.2147 49.2148 43.1182L41.5238 39.8213L33.8584 43.1065L33.8643 43.1036ZM13.6496 10.926L14.8355 4.46948C14.9243 3.98428 15.3826 3.66571 15.8581 3.75631C16.3337 3.84691 16.6459 4.31457 16.5571 4.79974L15.3941 11.1189L19.7224 13.5916L20.9684 2.29162H11.5328L9.13523 12.6503L13.6468 10.9259L13.6496 10.926ZM11.1488 24.5434L12.6613 16.3216C12.7501 15.8364 13.2084 15.5179 13.6839 15.6084C14.1594 15.6991 14.4717 16.1667 14.3829 16.6519L12.9019 24.7127L18.2128 27.3112L19.5132 15.5203L14.3428 12.5682L8.65381 14.7428L5.94684 26.4401L11.1459 24.5462L11.1488 24.5434ZM8.63663 38.2078L10.1434 30.0123C10.2322 29.5271 10.6905 29.2085 11.166 29.2991C11.6415 29.3897 11.9537 29.8574 11.8649 30.3426L10.4012 38.3046L16.7002 41.0024L18.0035 29.1914L11.8649 26.1867L5.46548 28.5162L2.62673 40.7837L8.63364 38.2087L8.63663 38.2078ZM51.6047 11.1251L50.4417 4.80005C50.3529 4.31486 50.6652 3.84724 51.1407 3.75662C51.6162 3.66602 52.0745 3.98461 52.1633 4.46979L53.3492 10.9234L57.8608 12.6508L55.4632 2.2921H46.0276L47.2737 13.5944L51.6019 11.1245L51.6047 11.1251ZM54.1025 24.7102L52.6216 16.6494C52.5328 16.1642 52.845 15.6965 53.3205 15.6059C53.7961 15.5153 54.2544 15.8339 54.3432 16.3191L55.8556 24.5438L61.0547 26.4378L58.3477 14.7404L52.6645 12.5659L47.4883 15.5179L48.7888 27.3118L54.0996 24.7075L54.1025 24.7102ZM56.6004 38.3014L55.1366 30.3393C55.0478 29.8541 55.36 29.3865 55.8355 29.2958C56.3111 29.2052 56.7693 29.5238 56.8582 30.009L58.3649 38.2045L64.3718 40.7796L61.5331 28.5121L55.1308 26.1826L48.995 29.1901L50.2983 40.9982L56.5974 38.3004L56.6004 38.3014ZM26.219 10.9088L26.5885 4.58089C26.6171 4.08693 27.0325 3.71278 27.5137 3.74203C27.9978 3.77126 28.3645 4.19507 28.3359 4.6861L27.9721 10.9497L32.6212 13.5218V2.29216H22.736L21.5043 13.4455L26.219 10.9088ZM25.4198 24.6287L25.8982 16.4331C25.9268 15.9391 26.3422 15.565 26.8234 15.5943C27.3075 15.6235 27.6742 16.0473 27.6455 16.5383L27.1729 24.6605L32.6212 27.2531V15.5617L27.0555 12.4839L21.2692 15.5968L19.9916 27.1856L25.4227 24.634L25.4198 24.6287ZM24.6292 38.2378L25.1019 30.1238C25.1305 29.6298 25.5459 29.2557 26.0271 29.2849C26.5112 29.3141 26.8779 29.738 26.8492 30.229L26.3794 38.2666L32.6184 40.941V29.2295L26.2591 26.2043L19.7566 29.2616L18.4762 40.8744L24.6263 38.238L24.6292 38.2378ZM39.0954 11.0585L38.7373 4.68377C38.7116 4.18981 39.0811 3.76889 39.5652 3.74263C40.0493 3.71632 40.4618 4.09337 40.4875 4.58733L40.8485 11.0264L45.5005 13.4669L44.2659 2.2926H34.3807V13.5545L39.0954 11.0585ZM39.8574 24.6616L39.4019 16.5364C39.3762 16.0424 39.7457 15.6215 40.2298 15.5952C40.7139 15.5689 41.1264 15.946 41.1521 16.4399L41.6133 24.6325L47.013 27.1782L45.7354 15.6006L40.0035 12.593L34.3804 15.5714V27.2568L39.8574 24.6616ZM40.6222 38.2677L40.1696 30.227C40.1439 29.7331 40.5134 29.3122 40.9975 29.2859C41.4816 29.2596 41.8941 29.6366 41.9199 30.1306L42.3753 38.2416L48.5226 40.875L47.2393 29.257L40.7655 26.2056L34.3776 29.2307V40.9423L40.6194 38.2679L40.6222 38.2677Z" fill="#007FFF"/>
<path fill-rule="evenodd" clip-rule="evenodd" d="M3.86126 27.668C3.86699 27.6417 3.87272 27.6183 3.87845 27.592L9.97702 1.23656C10.0515 0.818596 10.4096 0.5 10.8421 0.5H56.159C56.5916 0.5 56.9496 0.818589 57.0241 1.23656L63.1227 27.592C63.1284 27.6154 63.1341 27.6417 63.1399 27.668L66.4656 42.0456C66.4885 42.1245 66.5 42.2063 66.5 42.2911V46.6023C66.5 47.0962 66.1076 47.4996 65.6206 47.4996C65.4888 47.4996 65.3657 47.4703 65.2568 47.4177L57.5914 44.1325L49.9004 47.4294C49.6741 47.5259 49.4306 47.52 49.2215 47.4294L41.5304 44.1325L33.8394 47.4294C33.6131 47.5259 33.3696 47.52 33.1605 47.4294L25.4695 44.1325L17.7784 47.4294C17.5521 47.5259 17.3086 47.52 17.0995 47.4294L9.40847 44.1325L1.71742 47.4294C1.27055 47.6223 0.754938 47.406 0.568749 46.9501C0.522916 46.8361 0.5 46.7192 0.5 46.6022V42.2911C0.5 42.2034 0.511458 42.1186 0.537238 42.0368L3.86126 27.668ZM33.8643 43.1036C33.7583 43.1533 33.6408 43.1825 33.5148 43.1854H33.4976H33.4947H33.4833H33.4804H33.4718H33.4604H33.4575H33.4403H33.4346C33.3257 43.1767 33.2226 43.1504 33.131 43.1065L25.4656 39.8213L17.7745 43.1182C17.5654 43.2088 17.3219 43.2147 17.0956 43.1182L9.40458 39.8213L2.25186 42.8874V45.252L9.06374 42.3321C9.27285 42.2415 9.51633 42.2356 9.74263 42.3321L17.4337 45.629L25.1247 42.3321C25.3338 42.2415 25.5773 42.2356 25.8036 42.3321L33.4947 45.629L41.1857 42.3321C41.3948 42.2415 41.6383 42.2356 41.8646 42.3321L49.5557 45.629L57.2467 42.3321C57.4558 42.2415 57.6993 42.2356 57.9256 42.3321L64.7375 45.252V42.8874L57.5847 39.8213L49.8937 43.1182C49.6846 43.2088 49.4411 43.2147 49.2148 43.1182L41.5238 39.8213L33.8584 43.1065L33.8643 43.1036ZM13.6496 10.926L14.8355 4.46948C14.9243 3.98428 15.3826 3.66571 15.8581 3.75631C16.3337 3.84691 16.6459 4.31457 16.5571 4.79974L15.3941 11.1189L19.7224 13.5916L20.9684 2.29162H11.5328L9.13523 12.6503L13.6468 10.9259L13.6496 10.926ZM11.1488 24.5434L12.6613 16.3216C12.7501 15.8364 13.2084 15.5179 13.6839 15.6084C14.1594 15.6991 14.4717 16.1667 14.3829 16.6519L12.9019 24.7127L18.2128 27.3112L19.5132 15.5203L14.3428 12.5682L8.65381 14.7428L5.94684 26.4401L11.1459 24.5462L11.1488 24.5434ZM8.63663 38.2078L10.1434 30.0123C10.2322 29.5271 10.6905 29.2085 11.166 29.2991C11.6415 29.3897 11.9537 29.8574 11.8649 30.3426L10.4012 38.3046L16.7002 41.0024L18.0035 29.1914L11.8649 26.1867L5.46548 28.5162L2.62673 40.7837L8.63364 38.2087L8.63663 38.2078ZM51.6047 11.1251L50.4417 4.80005C50.3529 4.31486 50.6652 3.84724 51.1407 3.75662C51.6162 3.66602 52.0745 3.98461 52.1633 4.46979L53.3492 10.9234L57.8608 12.6508L55.4632 2.2921H46.0276L47.2737 13.5944L51.6019 11.1245L51.6047 11.1251ZM54.1025 24.7102L52.6216 16.6494C52.5328 16.1642 52.845 15.6965 53.3205 15.6059C53.7961 15.5153 54.2544 15.8339 54.3432 16.3191L55.8556 24.5438L61.0547 26.4378L58.3477 14.7404L52.6645 12.5659L47.4883 15.5179L48.7888 27.3118L54.0996 24.7075L54.1025 24.7102ZM56.6004 38.3014L55.1366 30.3393C55.0478 29.8541 55.36 29.3865 55.8355 29.2958C56.3111 29.2052 56.7693 29.5238 56.8582 30.009L58.3649 38.2045L64.3718 40.7796L61.5331 28.5121L55.1308 26.1826L48.995 29.1901L50.2983 40.9982L56.5974 38.3004L56.6004 38.3014ZM26.219 10.9088L26.5885 4.58089C26.6171 4.08693 27.0325 3.71278 27.5137 3.74203C27.9978 3.77126 28.3645 4.19507 28.3359 4.6861L27.9721 10.9497L32.6212 13.5218V2.29216H22.736L21.5043 13.4455L26.219 10.9088ZM25.4198 24.6287L25.8982 16.4331C25.9268 15.9391 26.3422 15.565 26.8234 15.5943C27.3075 15.6235 27.6742 16.0473 27.6455 16.5383L27.1729 24.6605L32.6212 27.2531V15.5617L27.0555 12.4839L21.2692 15.5968L19.9916 27.1856L25.4227 24.634L25.4198 24.6287ZM24.6292 38.2378L25.1019 30.1238C25.1305 29.6298 25.5459 29.2557 26.0271 29.2849C26.5112 29.3141 26.8779 29.738 26.8492 30.229L26.3794 38.2666L32.6184 40.941V29.2295L26.2591 26.2043L19.7566 29.2616L18.4762 40.8744L24.6263 38.238L24.6292 38.2378ZM39.0954 11.0585L38.7373 4.68377C38.7116 4.18981 39.0811 3.76889 39.5652 3.74263C40.0493 3.71632 40.4618 4.09337 40.4875 4.58733L40.8485 11.0264L45.5005 13.4669L44.2659 2.2926H34.3807V13.5545L39.0954 11.0585ZM39.8574 24.6616L39.4019 16.5364C39.3762 16.0424 39.7457 15.6215 40.2298 15.5952C40.7139 15.5689 41.1264 15.946 41.1521 16.4399L41.6133 24.6325L47.013 27.1782L45.7354 15.6006L40.0035 12.593L34.3804 15.5714V27.2568L39.8574 24.6616ZM40.6222 38.2677L40.1696 30.227C40.1439 29.7331 40.5134 29.3122 40.9975 29.2859C41.4816 29.2596 41.8941 29.6366 41.9199 30.1306L42.3753 38.2416L48.5226 40.875L47.2393 29.257L40.7655 26.2056L34.3776 29.2307V40.9423L40.6194 38.2679L40.6222 38.2677Z" stroke="#007FFF" mask="url(#path-1-outside-1_32016_99)"/>
</svg>
