<svg
  width="50"
  height="50"
  viewBox="0 0 50 50"
  fill="none"
  xmlns="http://www.w3.org/2000/svg"
>
  <path
    d="M49.5 0.5V49.5H0.5V0.5H49.5ZM9.37402 2.625C8.41323 2.62613 7.4919 3.0081 6.8125 3.6875C6.1331 4.3669 5.75113 5.28823 5.75 6.24902V26.5615C5.74656 29.7684 6.6167 32.9161 8.2666 35.666C9.81339 38.244 11.9909 40.3817 14.5898 41.8799L15.1152 42.1709L24.7646 47.3164L25 47.4414L25.2354 47.3164L34.8848 42.1709C37.7159 40.6647 40.0835 38.4159 41.7334 35.666C43.2802 33.0878 44.1415 30.1605 44.2402 27.1621L44.25 26.5615V6.24902C44.2489 5.28822 43.8669 4.3669 43.1875 3.6875C42.5081 3.0081 41.5868 2.62613 40.626 2.625H9.37402ZM40.624 3.625L40.8838 3.6377C41.4846 3.69788 42.0497 3.9638 42.4805 4.39453C42.9112 4.82526 43.1771 5.39035 43.2373 5.99121L43.25 6.25098V26.5635C43.2532 29.5887 42.4324 32.5582 40.876 35.1523C39.3195 37.7464 37.0858 39.8673 34.415 41.2881L34.4141 41.2891L25 46.3076L15.5859 41.2891L15.585 41.2881C12.9142 39.8673 10.6805 37.7464 9.12402 35.1523C7.66482 32.7203 6.85203 29.9583 6.75879 27.1299L6.75 26.5635V6.25098C6.75073 5.55487 7.02731 4.88675 7.51953 4.39453C7.95026 3.9638 8.51535 3.69788 9.11621 3.6377L9.37598 3.625H40.624ZM8.875 26.5615C8.8722 29.2019 9.5888 31.7935 10.9473 34.0576C12.3058 36.3218 14.2557 38.174 16.5869 39.4141V39.4131L24.7646 43.7744L25 43.9004L25.2354 43.7744L33.4121 39.4131L33.4131 39.4141C35.7443 38.174 37.6942 36.3218 39.0527 34.0576C40.3263 31.9351 41.0358 29.5252 41.1172 27.0566L41.125 26.5615V5.75H8.875V26.5615ZM40.125 6.75V26.5635C40.1275 29.0222 39.4604 31.4356 38.1953 33.5439C36.9302 35.6522 35.115 37.3766 32.9443 38.5312H32.9434L25 42.7656L17.0566 38.5312H17.0557C14.885 37.3766 13.0698 35.6522 11.8047 33.5439C10.6186 31.5673 9.95858 29.3224 9.88281 27.0234L9.875 26.5635V6.75H40.125ZM21.875 25.2148L17.8281 21.168L14.918 24.0781L21.875 31.0352L35.082 17.8281L32.1719 14.918L21.875 25.2148ZM33.668 17.8281L21.875 29.6211L16.332 24.0781L17.8281 22.582L21.875 26.6289L32.1719 16.332L33.668 17.8281Z"
    stroke="black"
  />
</svg>
