<svg width="70" height="58" viewBox="0 0 70 58" fill="none" xmlns="http://www.w3.org/2000/svg">
<path d="M17.0138 47.5312V54.8438C17.0138 55.5344 16.7786 56.1132 16.3085 56.5801C15.8389 57.0476 15.2565 57.2812 14.5617 57.2812C13.8671 57.2812 13.2898 57.0476 12.8294 56.5801C12.3689 56.1132 12.1388 55.5344 12.1388 54.8438V22.1812L3.85125 28.4375C3.30741 28.8709 2.72458 29.0469 2.10275 28.9656C1.48091 28.8844 0.953325 28.5729 0.520002 28.0312C0.0866638 27.4896 -0.0758361 26.8937 0.0325026 26.2437C0.140825 25.5938 0.465825 25.0521 1.0075 24.6187L31.8825 1.05625C32.3158 0.73125 32.782 0.473964 33.2808 0.284375C33.7797 0.0947866 34.2885 0 34.8075 0C35.3264 0 35.8354 0.0947866 36.3342 0.284375C36.8331 0.473964 37.2991 0.73125 37.7325 1.05625L68.6075 24.6187C69.1491 25.0521 69.4607 25.5938 69.5419 26.2437C69.6232 26.8937 69.447 27.4896 69.0138 28.0312C68.5804 28.5729 68.0528 28.8844 67.431 28.9656C66.8092 29.0469 66.2263 28.8709 65.6825 28.4375L57.395 22.1V54.8438C57.395 55.5344 57.1599 56.1132 56.6898 56.5801C56.2202 57.0476 55.6378 57.2812 54.9429 57.2812C54.2484 57.2812 53.671 57.0476 53.2107 56.5801C52.7501 56.1132 52.52 55.5344 52.52 54.8438V47.5312H17.0138ZM17.0138 29.6562H52.52V21.5312H17.0138V29.6562ZM17.0138 42.6562H52.52V34.5312H17.0138V42.6562ZM19.37 16.6562H50.245L34.8075 4.875L19.37 16.6562Z" fill="#007FFF"/>
</svg>
