<svg width="49" height="49" viewBox="0 0 49 49" fill="none" xmlns="http://www.w3.org/2000/svg">
<path d="M22.1865 0V7.05469L14.1074 13.1084V16.1621H34.3232V13.1074L26.2441 7.05469V0H30.2441V5.05176L38.3232 11.1074V16.1621H48.4316V20.1621H46.3809V44.4062H48.4316V48.4062H0V44.4062H2.0293V20.1621H0V16.1621H10.1074V11.1074L18.1865 5.05273V0H22.1865ZM6.0293 44.4062H10.1074V24.2197H38.3232V44.4062H42.3809V20.1621H6.0293V44.4062ZM26.2441 42.377C26.244 40.9512 25.5052 39.3389 24.5654 37.9268C24.4485 37.7511 24.3301 37.5837 24.2148 37.4238C24.0998 37.5834 23.9829 37.7514 23.8662 37.9268C22.9264 39.3389 22.1867 40.9512 22.1865 42.377C22.1865 42.6432 22.239 42.9073 22.3408 43.1533C22.4428 43.3994 22.5929 43.6231 22.7812 43.8115C22.9696 43.9999 23.1933 44.15 23.4395 44.252C23.6855 44.3538 23.9495 44.4062 24.2158 44.4062C24.4822 44.4062 24.7461 44.3539 24.9922 44.252C25.2383 44.15 25.462 43.9999 25.6504 43.8115C25.8387 43.6232 25.9879 43.3993 26.0898 43.1533C26.1917 42.9072 26.2441 42.6433 26.2441 42.377ZM30.2441 42.377C30.2441 43.0691 30.126 43.7559 29.8936 44.4062H34.3232V28.2197H14.1074V44.4062H18.5381C18.3057 43.7558 18.1865 43.0691 18.1865 42.377C18.1866 39.7529 19.4616 37.3255 20.5361 35.7109C21.0947 34.8716 21.6508 34.1768 22.0674 33.6904C22.2765 33.4463 22.4527 33.2518 22.5801 33.1152C22.6438 33.0469 22.6959 32.9929 22.7334 32.9541C22.7521 32.9348 22.7669 32.9189 22.7783 32.9072L22.8008 32.8848C22.8008 32.8848 22.8239 32.907 23.6074 33.6904L22.8018 32.8838L24.2158 31.4697L25.6299 32.8838L24.2158 34.2988C25.63 32.8846 25.6309 32.8848 25.6309 32.8848L25.6387 32.8926C25.6424 32.8964 25.6467 32.9015 25.6523 32.9072C25.6638 32.9189 25.6795 32.9347 25.6982 32.9541C25.7357 32.9929 25.7879 33.047 25.8516 33.1152C25.9789 33.2517 26.1552 33.4464 26.3643 33.6904C26.7809 34.1768 27.337 34.8717 27.8955 35.7109C28.97 37.3255 30.244 39.753 30.2441 42.377Z" fill="#007FFF"/>
</svg>
