<svg width="66" height="44" viewBox="0 0 66 44" fill="none" xmlns="http://www.w3.org/2000/svg">
<path d="M13.1992 0.5H52.8008C53.4448 0.499715 54.0341 0.863526 54.3223 1.43945L65.3223 23.4395C65.4391 23.676 65.4997 23.9363 65.5 24.2002V39.5996C65.5 41.7536 63.7535 43.5001 61.5996 43.5H4.40039C2.24645 43.5001 0.5 41.7536 0.5 39.5996V24.2002L0.511719 24.0029C0.534474 23.8075 0.590192 23.6167 0.677734 23.4395L11.6777 1.43945C11.9659 0.863528 12.5552 0.499716 13.1992 0.5ZM25.9004 40.0996H62.0996V25.9004H25.9004V40.0996ZM21.8115 15.624L25.1113 22.2236L25.249 22.5H34.6504L34.2891 21.7764L30.9883 15.1768L30.8506 14.9004H21.4492L21.8115 15.624ZM35.0117 15.624L38.3115 22.2236L38.4492 22.5H47.8506L47.4883 21.7764L44.1885 15.1768L44.0508 14.9004H34.6494L35.0117 15.624ZM48.2109 15.624L51.5117 22.2236L51.6494 22.5H61.0508L60.6885 21.7764L57.3887 15.1768L57.251 14.9004H47.8496L48.2109 15.624ZM16.3115 4.62402L19.6113 11.2236L19.749 11.5H29.1504L28.7891 10.7764L25.4883 4.17676L25.3506 3.90039H15.9492L16.3115 4.62402ZM29.5117 4.62402L32.8115 11.2236L32.9492 11.5H42.3506L41.9883 10.7764L38.6885 4.17676L38.5508 3.90039H29.1494L29.5117 4.62402ZM42.7109 4.62402L46.0117 11.2236L46.1494 11.5H55.5508L55.1885 10.7764L51.8887 4.17676L51.751 3.90039H42.3496L42.7109 4.62402ZM22.5 24.6016L13.2002 6.00195L3.90039 24.6016V40.0996H22.5V24.6016Z" fill="#007FFF" stroke="black"/>
</svg>
