<svg width="53" height="53" viewBox="0 0 53 53" fill="none" xmlns="http://www.w3.org/2000/svg">
<mask id="path-1-outside-1_32016_87" maskUnits="userSpaceOnUse" x="-0.5" y="-0.5" width="54" height="54" fill="black">
<rect fill="white" x="-0.5" y="-0.5" width="54" height="54"/>
<path d="M51.6333 0.5H48.1667C47.9368 0.49994 47.7163 0.59123 47.5538 0.753775C47.3912 0.916319 47.2999 1.13679 47.3 1.36667H40.3667C40.3667 1.13679 40.2754 0.916319 40.1129 0.753775C39.9503 0.59123 39.7299 0.49994 39.5 0.5H36.0333C35.8035 0.49994 35.583 0.59123 35.4204 0.753775C35.2579 0.916319 35.1666 1.13679 35.1667 1.36667H17.8333C17.8334 1.13679 17.7421 0.916319 17.5796 0.753775C17.417 0.59123 17.1965 0.49994 16.9667 0.5H13.5C13.2701 0.49994 13.0497 0.59123 12.8871 0.753775C12.7246 0.916319 12.6333 1.13679 12.6333 1.36667H5.7C5.70006 1.13679 5.60877 0.916319 5.44623 0.753775C5.28368 0.59123 5.06321 0.49994 4.83333 0.5H1.36667C1.13679 0.49994 0.916319 0.59123 0.753775 0.753775C0.59123 0.916319 0.49994 1.13679 0.5 1.36667V9.16667C0.503382 10.2649 1.19751 11.2421 2.23333 11.6069V15.2333C2.23333 15.712 2.62135 16.1 3.1 16.1C3.57865 16.1 3.96667 15.712 3.96667 15.2333V11.607C4.70083 11.3452 5.27856 10.7675 5.5403 10.0333H12.7931C13.0548 10.7675 13.6325 11.3452 14.3667 11.6069V15.2333C14.3667 15.712 14.7547 16.1 15.2333 16.1C15.712 16.1 16.1 15.712 16.1 15.2333V11.607C16.8342 11.3452 17.4119 10.7675 17.6736 10.0333H17.8333C19.2686 10.0349 20.4318 11.198 20.4333 12.6333V13.5C20.4344 14.4568 21.2098 15.2322 22.1667 15.2333V18.5714C22.166 18.8011 22.0748 19.0213 21.9127 19.1841L13.9028 27.1944C13.0877 28.0055 12.6306 29.1087 12.6333 30.2587V33.4333C11.6765 33.4344 10.9011 34.2098 10.9 35.1667V36.9C10.9011 37.8568 11.6765 38.6322 12.6333 38.6333V47.3C11.6765 47.3011 10.9011 48.0765 10.9 49.0333V50.7667C10.9011 51.7235 11.6765 52.4989 12.6333 52.5H22.1667C23.1235 52.4989 23.8989 51.7235 23.9 50.7667V49.0333C23.8989 48.0765 23.1235 47.3011 22.1667 47.3V38.6333C23.1235 38.6322 23.8989 37.8568 23.9 36.9V35.1667C23.8989 34.2098 23.1235 33.4344 22.1667 33.4333V31.5515C22.1662 31.3214 22.2576 31.1007 22.4206 30.9383L29.5638 23.7946C30.3791 22.9838 30.8362 21.8806 30.8333 20.7308V15.2333C31.7902 15.2322 32.5656 14.4568 32.5667 13.5V12.6333C32.5682 11.198 33.7314 10.0349 35.1667 10.0333H35.3264C35.5881 10.7675 36.1659 11.3452 36.9 11.6069V15.2333C36.9 15.712 37.288 16.1 37.7667 16.1C38.2453 16.1 38.6333 15.712 38.6333 15.2333V11.607C39.3675 11.3452 39.9452 10.7675 40.207 10.0333H47.4597C47.7215 10.7675 48.2992 11.3452 49.0333 11.6069V15.2333C49.0333 15.712 49.4214 16.1 49.9 16.1C50.3786 16.1 50.7667 15.712 50.7667 15.2333V11.607C51.8025 11.2421 52.4966 10.2649 52.5 9.16667V1.36667C52.5001 1.13679 52.4088 0.916319 52.2462 0.753775C52.0837 0.59123 51.8632 0.49994 51.6333 0.5ZM47.3 3.1V8.3H40.3667V3.1H47.3ZM12.6333 3.1V8.3H5.7V3.1H12.6333ZM3.1 10.0333C2.62155 10.0329 2.23381 9.64512 2.23333 9.16667V2.23333H3.96667V9.16667C3.96619 9.64512 3.57845 10.0329 3.1 10.0333ZM15.2333 10.0333C14.7549 10.0329 14.3671 9.64512 14.3667 9.16667V2.23333H16.1V9.16667C16.0995 9.64512 15.7118 10.0329 15.2333 10.0333ZM22.1675 50.7667H12.6333V49.0333H22.1667L22.1675 50.7667ZM20.4333 47.3H14.3667V38.6333H20.4333V47.3ZM22.1675 36.9H12.6333V35.1667H22.1667L22.1675 36.9ZM29.1 20.7308C29.098 21.42 28.8243 22.0805 28.3383 22.5691L21.1951 29.7127C20.7058 30.1994 20.4316 30.8614 20.4333 31.5515V33.4333H14.3667V30.2587C14.3652 29.5687 14.6394 28.9067 15.1284 28.42L23.1383 20.4096C23.6275 19.9232 23.9017 19.2612 23.9 18.5714V15.2333H29.1V20.7308ZM30.8333 12.6333V13.5H22.1667V12.6333C22.1639 10.2413 20.2254 8.30281 17.8333 8.3V3.1H35.1667V8.3C32.7746 8.30281 30.8361 10.2413 30.8333 12.6333ZM37.7667 10.0333C37.2882 10.0329 36.9005 9.64512 36.9 9.16667V2.23333H38.6333V9.16667C38.6329 9.64512 38.2451 10.0329 37.7667 10.0333ZM50.7667 9.16667C50.7667 9.64531 50.3786 10.0333 49.9 10.0333C49.4214 10.0333 49.0333 9.64531 49.0333 9.16667V2.23333H50.7667V9.16667Z"/>
</mask>
<path d="M51.6333 0.5H48.1667C47.9368 0.49994 47.7163 0.59123 47.5538 0.753775C47.3912 0.916319 47.2999 1.13679 47.3 1.36667H40.3667C40.3667 1.13679 40.2754 0.916319 40.1129 0.753775C39.9503 0.59123 39.7299 0.49994 39.5 0.5H36.0333C35.8035 0.49994 35.583 0.59123 35.4204 0.753775C35.2579 0.916319 35.1666 1.13679 35.1667 1.36667H17.8333C17.8334 1.13679 17.7421 0.916319 17.5796 0.753775C17.417 0.59123 17.1965 0.49994 16.9667 0.5H13.5C13.2701 0.49994 13.0497 0.59123 12.8871 0.753775C12.7246 0.916319 12.6333 1.13679 12.6333 1.36667H5.7C5.70006 1.13679 5.60877 0.916319 5.44623 0.753775C5.28368 0.59123 5.06321 0.49994 4.83333 0.5H1.36667C1.13679 0.49994 0.916319 0.59123 0.753775 0.753775C0.59123 0.916319 0.49994 1.13679 0.5 1.36667V9.16667C0.503382 10.2649 1.19751 11.2421 2.23333 11.6069V15.2333C2.23333 15.712 2.62135 16.1 3.1 16.1C3.57865 16.1 3.96667 15.712 3.96667 15.2333V11.607C4.70083 11.3452 5.27856 10.7675 5.5403 10.0333H12.7931C13.0548 10.7675 13.6325 11.3452 14.3667 11.6069V15.2333C14.3667 15.712 14.7547 16.1 15.2333 16.1C15.712 16.1 16.1 15.712 16.1 15.2333V11.607C16.8342 11.3452 17.4119 10.7675 17.6736 10.0333H17.8333C19.2686 10.0349 20.4318 11.198 20.4333 12.6333V13.5C20.4344 14.4568 21.2098 15.2322 22.1667 15.2333V18.5714C22.166 18.8011 22.0748 19.0213 21.9127 19.1841L13.9028 27.1944C13.0877 28.0055 12.6306 29.1087 12.6333 30.2587V33.4333C11.6765 33.4344 10.9011 34.2098 10.9 35.1667V36.9C10.9011 37.8568 11.6765 38.6322 12.6333 38.6333V47.3C11.6765 47.3011 10.9011 48.0765 10.9 49.0333V50.7667C10.9011 51.7235 11.6765 52.4989 12.6333 52.5H22.1667C23.1235 52.4989 23.8989 51.7235 23.9 50.7667V49.0333C23.8989 48.0765 23.1235 47.3011 22.1667 47.3V38.6333C23.1235 38.6322 23.8989 37.8568 23.9 36.9V35.1667C23.8989 34.2098 23.1235 33.4344 22.1667 33.4333V31.5515C22.1662 31.3214 22.2576 31.1007 22.4206 30.9383L29.5638 23.7946C30.3791 22.9838 30.8362 21.8806 30.8333 20.7308V15.2333C31.7902 15.2322 32.5656 14.4568 32.5667 13.5V12.6333C32.5682 11.198 33.7314 10.0349 35.1667 10.0333H35.3264C35.5881 10.7675 36.1659 11.3452 36.9 11.6069V15.2333C36.9 15.712 37.288 16.1 37.7667 16.1C38.2453 16.1 38.6333 15.712 38.6333 15.2333V11.607C39.3675 11.3452 39.9452 10.7675 40.207 10.0333H47.4597C47.7215 10.7675 48.2992 11.3452 49.0333 11.6069V15.2333C49.0333 15.712 49.4214 16.1 49.9 16.1C50.3786 16.1 50.7667 15.712 50.7667 15.2333V11.607C51.8025 11.2421 52.4966 10.2649 52.5 9.16667V1.36667C52.5001 1.13679 52.4088 0.916319 52.2462 0.753775C52.0837 0.59123 51.8632 0.49994 51.6333 0.5ZM47.3 3.1V8.3H40.3667V3.1H47.3ZM12.6333 3.1V8.3H5.7V3.1H12.6333ZM3.1 10.0333C2.62155 10.0329 2.23381 9.64512 2.23333 9.16667V2.23333H3.96667V9.16667C3.96619 9.64512 3.57845 10.0329 3.1 10.0333ZM15.2333 10.0333C14.7549 10.0329 14.3671 9.64512 14.3667 9.16667V2.23333H16.1V9.16667C16.0995 9.64512 15.7118 10.0329 15.2333 10.0333ZM22.1675 50.7667H12.6333V49.0333H22.1667L22.1675 50.7667ZM20.4333 47.3H14.3667V38.6333H20.4333V47.3ZM22.1675 36.9H12.6333V35.1667H22.1667L22.1675 36.9ZM29.1 20.7308C29.098 21.42 28.8243 22.0805 28.3383 22.5691L21.1951 29.7127C20.7058 30.1994 20.4316 30.8614 20.4333 31.5515V33.4333H14.3667V30.2587C14.3652 29.5687 14.6394 28.9067 15.1284 28.42L23.1383 20.4096C23.6275 19.9232 23.9017 19.2612 23.9 18.5714V15.2333H29.1V20.7308ZM30.8333 12.6333V13.5H22.1667V12.6333C22.1639 10.2413 20.2254 8.30281 17.8333 8.3V3.1H35.1667V8.3C32.7746 8.30281 30.8361 10.2413 30.8333 12.6333ZM37.7667 10.0333C37.2882 10.0329 36.9005 9.64512 36.9 9.16667V2.23333H38.6333V9.16667C38.6329 9.64512 38.2451 10.0329 37.7667 10.0333ZM50.7667 9.16667C50.7667 9.64531 50.3786 10.0333 49.9 10.0333C49.4214 10.0333 49.0333 9.64531 49.0333 9.16667V2.23333H50.7667V9.16667Z" fill="#007FFF"/>
<path d="M51.6333 0.5H48.1667C47.9368 0.49994 47.7163 0.59123 47.5538 0.753775C47.3912 0.916319 47.2999 1.13679 47.3 1.36667H40.3667C40.3667 1.13679 40.2754 0.916319 40.1129 0.753775C39.9503 0.59123 39.7299 0.49994 39.5 0.5H36.0333C35.8035 0.49994 35.583 0.59123 35.4204 0.753775C35.2579 0.916319 35.1666 1.13679 35.1667 1.36667H17.8333C17.8334 1.13679 17.7421 0.916319 17.5796 0.753775C17.417 0.59123 17.1965 0.49994 16.9667 0.5H13.5C13.2701 0.49994 13.0497 0.59123 12.8871 0.753775C12.7246 0.916319 12.6333 1.13679 12.6333 1.36667H5.7C5.70006 1.13679 5.60877 0.916319 5.44623 0.753775C5.28368 0.59123 5.06321 0.49994 4.83333 0.5H1.36667C1.13679 0.49994 0.916319 0.59123 0.753775 0.753775C0.59123 0.916319 0.49994 1.13679 0.5 1.36667V9.16667C0.503382 10.2649 1.19751 11.2421 2.23333 11.6069V15.2333C2.23333 15.712 2.62135 16.1 3.1 16.1C3.57865 16.1 3.96667 15.712 3.96667 15.2333V11.607C4.70083 11.3452 5.27856 10.7675 5.5403 10.0333H12.7931C13.0548 10.7675 13.6325 11.3452 14.3667 11.6069V15.2333C14.3667 15.712 14.7547 16.1 15.2333 16.1C15.712 16.1 16.1 15.712 16.1 15.2333V11.607C16.8342 11.3452 17.4119 10.7675 17.6736 10.0333H17.8333C19.2686 10.0349 20.4318 11.198 20.4333 12.6333V13.5C20.4344 14.4568 21.2098 15.2322 22.1667 15.2333V18.5714C22.166 18.8011 22.0748 19.0213 21.9127 19.1841L13.9028 27.1944C13.0877 28.0055 12.6306 29.1087 12.6333 30.2587V33.4333C11.6765 33.4344 10.9011 34.2098 10.9 35.1667V36.9C10.9011 37.8568 11.6765 38.6322 12.6333 38.6333V47.3C11.6765 47.3011 10.9011 48.0765 10.9 49.0333V50.7667C10.9011 51.7235 11.6765 52.4989 12.6333 52.5H22.1667C23.1235 52.4989 23.8989 51.7235 23.9 50.7667V49.0333C23.8989 48.0765 23.1235 47.3011 22.1667 47.3V38.6333C23.1235 38.6322 23.8989 37.8568 23.9 36.9V35.1667C23.8989 34.2098 23.1235 33.4344 22.1667 33.4333V31.5515C22.1662 31.3214 22.2576 31.1007 22.4206 30.9383L29.5638 23.7946C30.3791 22.9838 30.8362 21.8806 30.8333 20.7308V15.2333C31.7902 15.2322 32.5656 14.4568 32.5667 13.5V12.6333C32.5682 11.198 33.7314 10.0349 35.1667 10.0333H35.3264C35.5881 10.7675 36.1659 11.3452 36.9 11.6069V15.2333C36.9 15.712 37.288 16.1 37.7667 16.1C38.2453 16.1 38.6333 15.712 38.6333 15.2333V11.607C39.3675 11.3452 39.9452 10.7675 40.207 10.0333H47.4597C47.7215 10.7675 48.2992 11.3452 49.0333 11.6069V15.2333C49.0333 15.712 49.4214 16.1 49.9 16.1C50.3786 16.1 50.7667 15.712 50.7667 15.2333V11.607C51.8025 11.2421 52.4966 10.2649 52.5 9.16667V1.36667C52.5001 1.13679 52.4088 0.916319 52.2462 0.753775C52.0837 0.59123 51.8632 0.49994 51.6333 0.5ZM47.3 3.1V8.3H40.3667V3.1H47.3ZM12.6333 3.1V8.3H5.7V3.1H12.6333ZM3.1 10.0333C2.62155 10.0329 2.23381 9.64512 2.23333 9.16667V2.23333H3.96667V9.16667C3.96619 9.64512 3.57845 10.0329 3.1 10.0333ZM15.2333 10.0333C14.7549 10.0329 14.3671 9.64512 14.3667 9.16667V2.23333H16.1V9.16667C16.0995 9.64512 15.7118 10.0329 15.2333 10.0333ZM22.1675 50.7667H12.6333V49.0333H22.1667L22.1675 50.7667ZM20.4333 47.3H14.3667V38.6333H20.4333V47.3ZM22.1675 36.9H12.6333V35.1667H22.1667L22.1675 36.9ZM29.1 20.7308C29.098 21.42 28.8243 22.0805 28.3383 22.5691L21.1951 29.7127C20.7058 30.1994 20.4316 30.8614 20.4333 31.5515V33.4333H14.3667V30.2587C14.3652 29.5687 14.6394 28.9067 15.1284 28.42L23.1383 20.4096C23.6275 19.9232 23.9017 19.2612 23.9 18.5714V15.2333H29.1V20.7308ZM30.8333 12.6333V13.5H22.1667V12.6333C22.1639 10.2413 20.2254 8.30281 17.8333 8.3V3.1H35.1667V8.3C32.7746 8.30281 30.8361 10.2413 30.8333 12.6333ZM37.7667 10.0333C37.2882 10.0329 36.9005 9.64512 36.9 9.16667V2.23333H38.6333V9.16667C38.6329 9.64512 38.2451 10.0329 37.7667 10.0333ZM50.7667 9.16667C50.7667 9.64531 50.3786 10.0333 49.9 10.0333C49.4214 10.0333 49.0333 9.64531 49.0333 9.16667V2.23333H50.7667V9.16667Z" stroke="#007FFF" mask="url(#path-1-outside-1_32016_87)"/>
</svg>
