<svg width="71" height="32" viewBox="0 0 71 32" fill="none" xmlns="http://www.w3.org/2000/svg">
<path d="M30.223 4.81496C30.0891 4.60187 29.8548 4.47197 29.6023 4.47197H22.7885C22.5081 4.47197 22.2527 4.63106 22.1304 4.88283L9.41327 30.9506C9.30348 31.1768 9.31739 31.4439 9.45133 31.657C9.58528 31.8701 9.81951 32 10.072 32H16.8852C17.1655 32 17.421 31.8402 17.5432 31.5891L30.2603 5.52064C30.3709 5.29514 30.357 5.02805 30.223 4.81496ZM16.427 30.5405H11.2417L23.2467 5.93149H28.4326L16.427 30.5405Z" fill="#007FFF"/>
<path d="M48.8566 4.81496C48.7227 4.60187 48.4884 4.47197 48.2359 4.47197H42.9145V3.74732H43.4028C43.8075 3.74732 44.1347 3.42039 44.1347 3.01756V0.729761C44.1347 0.326933 43.8075 0 43.4028 0H34.4325C34.0285 0 33.7006 0.326933 33.7006 0.729761V3.01756C33.7006 3.42039 34.0285 3.74732 34.4325 3.74732H34.9215V4.47197H32.1049C31.8246 4.47197 31.5691 4.63106 31.4469 4.88283L18.7297 30.9506C18.6199 31.1768 18.6338 31.4439 18.7678 31.657C18.9017 31.8701 19.136 32 19.3885 32H26.2023C26.4827 32 26.7381 31.8402 26.8604 31.5891L35.5788 13.7158C35.6044 13.718 35.6271 13.7312 35.6542 13.7312H36.4476L28.0476 30.9506C27.9378 31.1768 27.9517 31.4439 28.0857 31.657C28.2196 31.8701 28.4539 32 28.7064 32H35.5202C35.8006 32 36.056 31.8402 36.1783 31.5891L48.8947 5.52137C49.0045 5.29514 48.9906 5.02805 48.8566 4.81496ZM35.1645 1.45952H42.6708V2.2878H35.1645V1.45952ZM25.7441 30.5405H20.5582L32.5631 5.93149H34.9215V11.7251L25.7441 30.5405ZM36.3854 5.20538L36.3862 5.20173L36.3854 5.19808V3.74732H41.4513V10.2312L39.8088 12.2709H36.3854V5.20538ZM35.0613 30.5405H29.8753L38.0763 13.7312H40.1609C40.2678 13.7312 40.3673 13.7056 40.4588 13.6648C40.483 13.6538 40.5013 13.6341 40.5239 13.621C40.5913 13.5816 40.6528 13.5378 40.7033 13.4801C40.7121 13.4706 40.7238 13.4677 40.7318 13.4575L42.755 10.9449C42.7755 10.9187 42.7821 10.8873 42.7996 10.8596C42.8252 10.8165 42.8501 10.7764 42.8677 10.7282C42.8845 10.6786 42.8911 10.6297 42.8977 10.5779C42.9021 10.5472 42.916 10.5195 42.916 10.4874V5.93076H47.067L35.0613 30.5405Z" fill="#007FFF"/>
<path d="M20.8817 4.81496C20.7477 4.60187 20.5135 4.47197 20.261 4.47197H13.4486C13.1682 4.47197 12.9128 4.63106 12.7906 4.88283L0.0734112 30.9506C-0.0363834 31.1768 -0.0224761 31.4439 0.111473 31.657C0.245423 31.8701 0.479651 32 0.732179 32H7.54676C7.82711 32 8.08256 31.8402 8.2048 31.5891L20.9205 5.52064C21.0295 5.29514 21.0156 5.02805 20.8817 4.81496ZM7.08782 30.5405H1.90186L13.9068 5.93149H19.0913L7.08782 30.5405Z" fill="#007FFF"/>
<path d="M70.8763 31.6519C70.9019 31.6118 70.9297 31.5753 70.948 31.5293C70.9663 31.4804 70.9707 31.4286 70.9788 31.3761C70.9846 31.3396 71 31.3075 71 31.2695C71 31.2629 70.9963 31.2571 70.9963 31.2513C70.9949 31.2038 70.9788 31.1571 70.9678 31.1104C70.9561 31.0623 70.9517 31.0126 70.9312 30.9688C70.9283 30.963 70.929 30.9564 70.9261 30.9513L58.2104 4.88283C58.206 4.87407 58.1979 4.86896 58.1943 4.86093C58.1855 4.84561 58.1818 4.82955 58.1731 4.81496C58.1365 4.75658 58.0918 4.70696 58.042 4.66171C58.0311 4.65222 58.0193 4.64638 58.0084 4.63763C57.952 4.59165 57.8891 4.55663 57.8217 4.52962C57.8049 4.52306 57.7888 4.51503 57.7719 4.50992C57.7009 4.48803 57.6285 4.4727 57.5524 4.4727H50.7392C50.4589 4.4727 50.2042 4.63179 50.0812 4.88356L37.3648 30.9506C37.255 31.1768 37.2689 31.4439 37.4028 31.657C37.5368 31.8701 37.771 32 38.0236 32H47.5991C47.6855 31.9993 47.7689 31.9788 47.8494 31.9496C47.8729 31.9409 47.8941 31.9314 47.916 31.9205C47.9768 31.8913 48.0324 31.854 48.0837 31.8088C48.0968 31.7964 48.1115 31.7891 48.1232 31.776C48.1759 31.722 48.222 31.6614 48.2571 31.5899L57.5538 12.5314L66.8505 31.5899C66.8856 31.6614 66.931 31.722 66.9844 31.776C66.9962 31.7891 67.0108 31.7964 67.024 31.8088C67.0745 31.8548 67.1308 31.8913 67.1916 31.9205C67.2135 31.9314 67.2348 31.9409 67.2582 31.9496C67.338 31.9788 67.4222 31.9993 67.5085 32H70.268L70.2739 31.9985C70.3808 31.9978 70.4803 31.9723 70.5711 31.9307C70.5769 31.9278 70.5828 31.9292 70.5879 31.9263C70.6208 31.9102 70.6428 31.8818 70.6721 31.8621C70.7175 31.8314 70.7621 31.8044 70.7994 31.765C70.8316 31.7314 70.8521 31.6913 70.8763 31.6519ZM67.9653 30.5405L58.2104 10.5428C58.1958 10.5137 58.1709 10.4954 58.1533 10.4684C58.1269 10.4275 58.1006 10.3881 58.0647 10.3524C58.0281 10.3159 57.9879 10.2889 57.9454 10.2612C57.9191 10.2444 57.9008 10.2196 57.8722 10.2057C57.8583 10.1991 57.8444 10.2006 57.8298 10.1948C57.7837 10.175 57.7353 10.1663 57.6856 10.1575C57.6402 10.1488 57.597 10.1386 57.5524 10.1386C57.5062 10.1386 57.4638 10.1488 57.4184 10.1575C57.3686 10.167 57.3203 10.175 57.2742 10.1948C57.2603 10.2006 57.2449 10.1991 57.231 10.2057C57.2017 10.2203 57.1834 10.2451 57.1564 10.2626C57.1139 10.2896 57.0751 10.3159 57.0392 10.3517C57.0034 10.3874 56.9763 10.4275 56.9492 10.4691C56.9324 10.4954 56.9068 10.5137 56.8929 10.5428L47.1387 30.5405H46.0064L57.5524 6.8707L69.0976 30.5405H67.9653ZM51.1974 5.93149H56.3819L44.3785 30.5405H39.1932L51.1974 5.93149Z" fill="#007FFF"/>
</svg>
