<svg width="66" height="44" viewBox="0 0 66 44" fill="none" xmlns="http://www.w3.org/2000/svg">
<path d="M65.769 23.2155L54.769 1.21551C54.396 0.470008 53.6336 -0.000578229 52.8 5.33244e-07H13.2C12.3664 -0.000578229 11.604 0.470008 11.231 1.21551L0.231005 23.2155C0.0793695 23.5215 0.000315689 23.8584 0 24.2V39.6C0 42.0301 1.96987 44.0001 4.39999 44H61.6C64.0301 44.0001 66 42.0301 66 39.6V24.2C65.9997 23.8584 65.9206 23.5215 65.769 23.2155ZM25.0415 4.40002L28.3415 11H20.0585L16.7585 4.40002H25.0415ZM38.2415 4.40002L41.5415 11H33.2585L29.9585 4.40002H38.2415ZM25.5585 22L22.2585 15.4H30.5415L33.8415 22H25.5585ZM38.7585 22L35.4585 15.4H43.7415L47.0415 22H38.7585ZM51.9585 22L48.6585 15.4H56.9415L60.2415 22H51.9585ZM54.7415 11H46.4585L43.1585 4.40002H51.4415L54.7415 11ZM4.39999 24.7198L13.2 7.11975L22 24.7198V39.6H4.39999V24.7198ZM26.4 39.6V26.4H61.6V39.6H26.4Z" fill="#007FFF"/>
</svg>
