<svg width="31" height="30" viewBox="0 0 31 30" fill="none" xmlns="http://www.w3.org/2000/svg">
<path fill-rule="evenodd" clip-rule="evenodd" d="M7.8241 0.499302C10.29 0.233311 12.8631 0 15.5 0C18.1369 0 20.71 0.233311 23.1758 0.499302C27.0152 0.913442 30.1001 3.89622 30.5116 7.6184C30.774 9.9924 31 12.4659 31 15C31 17.5341 30.774 20.0076 30.5116 22.3816C30.1001 26.1038 27.0152 29.0867 23.1758 29.5007C20.71 29.7667 18.1369 30 15.5 30C12.8631 30 10.29 29.7667 7.8241 29.5007C3.98481 29.0867 0.899937 26.1038 0.488431 22.3816C0.225974 20.0076 0 17.5341 0 15C0 12.4659 0.225974 9.9924 0.488431 7.6184C0.899935 3.89622 3.98481 0.913442 7.8241 0.499302ZM22.205 10.4731C22.7921 9.95776 22.8362 9.0794 22.3037 8.51129C21.7712 7.94316 20.8636 7.90038 20.2765 8.41576C18.3688 10.0904 16.9359 11.5955 15.7263 13.4226C14.8453 14.7532 14.1037 16.2232 13.3776 18.0048L10.7896 15.422C10.2378 14.8714 9.32919 14.8578 8.76016 15.3918C8.19114 15.9258 8.17716 16.8051 8.72893 17.3558L12.904 21.5224C13.2507 21.8684 13.7578 22.0158 14.2441 21.9118C14.7303 21.8078 15.126 21.4673 15.2898 21.0122C16.2547 18.3296 17.1114 16.4794 18.1431 14.9211C19.1692 13.3713 20.4071 12.0515 22.205 10.4731Z" fill="#007FFF"/>
</svg>
