<svg width="18" height="18" viewBox="0 0 18 18" fill="none" xmlns="http://www.w3.org/2000/svg">
<path d="M16.3636 9C16.3636 4.93318 13.0668 1.63636 9 1.63636C4.93318 1.63636 1.63636 4.93318 1.63636 9C1.63636 13.0668 4.93318 16.3636 9 16.3636C13.0668 16.3636 16.3636 13.0668 16.3636 9ZM8.18182 4.09091C8.18182 3.63904 8.54813 3.27273 9 3.27273C9.45187 3.27273 9.81818 3.63904 9.81818 4.09091V8.49423L12.6387 9.90447C13.0428 10.1066 13.2067 10.5981 13.0046 11.0023C12.8025 11.4065 12.3109 11.5703 11.9068 11.3683L8.63406 9.73189C8.35687 9.5933 8.18182 9.3099 8.18182 9V4.09091ZM18 9C18 13.9706 13.9706 18 9 18C4.02944 18 0 13.9706 0 9C0 4.02944 4.02944 0 9 0C13.9706 0 18 4.02944 18 9Z" fill="#7FFF00"/>
</svg>
